<?xml version="1.0" encoding="UTF-8"?>
<!DOCTYPE svg PUBLIC "-//W3C//DTD SVG 1.1//EN" "http://www.w3.org/Graphics/SVG/1.1/DTD/svg11.dtd">
<svg xmlns="http://www.w3.org/2000/svg" version="1.1" width="186px" height="283px" style="shape-rendering:geometricPrecision; text-rendering:geometricPrecision; image-rendering:optimizeQuality; fill-rule:evenodd; clip-rule:evenodd" xmlns:xlink="http://www.w3.org/1999/xlink">
<g><path style="opacity:0.99" fill="#27a9e0" d="M -0.5,-0.5 C 0.5,-0.5 1.5,-0.5 2.5,-0.5C 30.8244,20.3499 58.4911,42.1833 85.5,65C 88.1177,67.1057 90.1177,69.6057 91.5,72.5C 71.4202,79.4093 57.2535,92.7427 49,112.5C 45.8977,120.14 43.3977,127.973 41.5,136C 41.816,140.322 43.816,143.655 47.5,146C 61.7794,158.127 76.4461,169.627 91.5,180.5C 91.5,180.833 91.5,181.167 91.5,181.5C 81.7121,191.063 73.8788,202.063 68,214.5C 58.3928,236.488 50.8928,259.155 45.5,282.5C 44.1667,282.5 42.8333,282.5 41.5,282.5C 41.2172,281.711 40.7172,281.044 40,280.5C 39.8333,233.163 39.3333,185.83 38.5,138.5C 26.6406,129.474 14.6406,120.64 2.5,112C 1.13243,109.196 0.132425,106.362 -0.5,103.5C -0.5,96.5 -0.5,89.5 -0.5,82.5C 9.21767,88.7044 18.551,95.5378 27.5,103C 30.1118,103.741 31.7785,102.741 32.5,100C 22.6947,90.8324 12.528,81.9991 2,73.5C 1.09774,71.0731 0.264404,68.7397 -0.5,66.5C -0.5,59.8333 -0.5,53.1667 -0.5,46.5C 15.889,58.0427 31.889,70.2094 47.5,83C 50.2371,84.0798 51.9037,83.2464 52.5,80.5C 51.7814,78.2723 50.448,76.439 48.5,75C 33.2114,63.3799 18.2114,51.3799 3.5,39C 1.5313,37.5002 0.197963,35.6669 -0.5,33.5C -0.5,22.1667 -0.5,10.8333 -0.5,-0.5 Z"/></g>
<g><path style="opacity:0.99" fill="#26a9e0" d="M 182.5,-0.5 C 183.5,-0.5 184.5,-0.5 185.5,-0.5C 185.5,10.8333 185.5,22.1667 185.5,33.5C 184.802,35.6669 183.469,37.5002 181.5,39C 166.789,51.3799 151.789,63.3799 136.5,75C 132.923,76.8518 131.923,79.5185 133.5,83C 134.833,83.6667 136.167,83.6667 137.5,83C 153.111,70.2094 169.111,58.0427 185.5,46.5C 185.5,52.8333 185.5,59.1667 185.5,65.5C 184.776,68.0826 183.943,70.7493 183,73.5C 172.472,81.9991 162.305,90.8324 152.5,100C 153.222,102.741 154.888,103.741 157.5,103C 166.449,95.5378 175.782,88.7044 185.5,82.5C 185.5,89.5 185.5,96.5 185.5,103.5C 184.868,106.362 183.868,109.196 182.5,112C 170.359,120.64 158.359,129.474 146.5,138.5C 145.667,185.83 145.167,233.163 145,280.5C 144.283,281.044 143.783,281.711 143.5,282.5C 142.167,282.5 140.833,282.5 139.5,282.5C 133.971,258.414 126.138,235.081 116,212.5C 112.503,205.502 108.503,198.835 104,192.5C 100.56,187.886 96.3935,184.22 91.5,181.5C 91.5,181.167 91.5,180.833 91.5,180.5C 109.295,168.887 126.128,155.887 142,141.5C 142.808,139.577 143.308,137.577 143.5,135.5C 138.702,111.72 126.702,92.5528 107.5,78C 103.086,75.4742 98.4195,73.6408 93.5,72.5C 95.2199,69.2689 97.5532,66.4356 100.5,64C 127.358,41.757 154.691,20.257 182.5,-0.5 Z"/></g>
<g><path style="opacity:0.991" fill="#1c75bc" d="M 91.5,72.5 C 91.8329,91.5117 91.4996,110.512 90.5,129.5C 86.5231,133.278 87.1898,136.278 92.5,138.5C 97.8102,136.278 98.4769,133.278 94.5,129.5C 93.5004,110.512 93.1671,91.5117 93.5,72.5C 98.4195,73.6408 103.086,75.4742 107.5,78C 126.702,92.5528 138.702,111.72 143.5,135.5C 143.308,137.577 142.808,139.577 142,141.5C 126.128,155.887 109.295,168.887 91.5,180.5C 76.4461,169.627 61.7794,158.127 47.5,146C 43.816,143.655 41.816,140.322 41.5,136C 43.3977,127.973 45.8977,120.14 49,112.5C 57.2535,92.7427 71.4202,79.4093 91.5,72.5 Z"/></g>
<g><path style="opacity:0.843" fill="#231f20" d="M 86.5,252.5 C 90.3428,253.931 90.5094,255.931 87,258.5C 84.1184,256.826 83.9517,254.826 86.5,252.5 Z"/></g>
<g><path style="opacity:0.925" fill="#221f20" d="M 105.5,250.5 C 106.239,250.369 106.906,250.536 107.5,251C 104.195,256.331 99.5283,257.831 93.5,255.5C 94.09,254.201 95.09,253.368 96.5,253C 99.8511,252.943 102.851,252.109 105.5,250.5 Z"/></g>
<g><path style="opacity:0.947" fill="#221f20" d="M 63.5,249.5 C 64.8333,249.5 66.1667,249.5 67.5,249.5C 67.7135,251.144 67.3802,252.644 66.5,254C 55.8408,256.557 56.1742,258.224 67.5,259C 79.1918,259.053 90.8585,259.22 102.5,259.5C 100.892,260.318 99.2251,260.985 97.5,261.5C 96.5855,265.815 95.7521,270.148 95,274.5C 94.5814,275.672 93.9147,276.672 93,277.5C 92.9935,272.421 93.8268,267.421 95.5,262.5C 93.2287,261.637 90.8954,261.637 88.5,262.5C 87.8918,266.472 87.3918,270.472 87,274.5C 86.5814,275.672 85.9147,276.672 85,277.5C 85.165,272.51 85.665,267.51 86.5,262.5C 83.7938,262.575 81.1272,262.908 78.5,263.5C 77.9645,267.819 77.4645,272.152 77,276.5C 76.5774,277.956 75.7441,278.456 74.5,278C 75.3147,273.222 75.9814,268.389 76.5,263.5C 69.0638,263.953 61.8972,262.953 55,260.5C 55.2535,256.565 57.4202,254.065 61.5,253C 62.305,251.887 62.9717,250.721 63.5,249.5 Z"/></g>
<g><path style="opacity:0.93" fill="#221f20" d="M 114.5,259.5 C 113.833,259.5 113.5,259.833 113.5,260.5C 111.5,260.833 109.5,261.167 107.5,261.5C 107.196,260.85 106.863,260.183 106.5,259.5C 107.964,256.997 109.131,254.33 110,251.5C 112.344,253.705 113.844,256.372 114.5,259.5 Z"/></g>
<g><path style="opacity:0.88" fill="#221f20" d="M 124.5,255.5 C 128.343,256.931 128.509,258.931 125,261.5C 122.118,259.826 121.952,257.826 124.5,255.5 Z"/></g>
<g><path style="opacity:0.9" fill="#221f20" d="M 122.5,267.5 C 119.768,271.558 116.101,274.558 111.5,276.5C 110.717,280.506 108.384,282.006 104.5,281C 103.498,274.802 103.998,268.635 106,262.5C 106.383,261.944 106.883,261.611 107.5,261.5C 107.149,263.869 106.982,266.203 107,268.5C 110.785,266.609 112.952,263.942 113.5,260.5C 114.167,260.5 114.5,260.167 114.5,259.5C 120.499,253.601 121.665,254.268 118,261.5C 115.167,264.333 112.333,267.167 109.5,270C 112.652,271.854 115.652,271.521 118.5,269C 119.289,266.635 120.456,264.468 122,262.5C 122.494,264.134 122.66,265.801 122.5,267.5 Z M 106.5,273.5 C 110.338,275.103 110.338,275.936 106.5,276C 105.402,275.23 105.402,274.397 106.5,273.5 Z"/></g>
<g><path style="opacity:0.928" fill="#221f20" d="M 60.5,282.5 C 59.1667,282.5 57.8333,282.5 56.5,282.5C 56.8576,276.931 58.0243,271.597 60,266.5C 60.1667,267.167 60.3333,267.833 60.5,268.5C 59.4852,272.131 59.3186,275.798 60,279.5C 60.8794,274.391 62.2128,269.391 64,264.5C 62.9566,275.646 66.2899,277.313 74,269.5C 74.1667,270 74.3333,270.5 74.5,271C 72.366,274.093 69.6994,276.593 66.5,278.5C 65.2798,279.711 64.1131,279.711 63,278.5C 62.3378,279.984 61.5045,281.317 60.5,282.5 Z"/></g>
<g><path style="opacity:0.898" fill="#221f20" d="M 122.5,267.5 C 123.222,267.082 123.722,266.416 124,265.5C 125.018,270.862 124.185,275.862 121.5,280.5C 121.167,280.333 120.833,280.167 120.5,280C 121.347,275.895 122.013,271.728 122.5,267.5 Z"/></g>
<g><path style="opacity:0.933" fill="#231f20" d="M 126.5,270.5 C 128.818,270.818 130.152,272.152 130.5,274.5C 130.019,277.834 128.353,280.167 125.5,281.5C 124.833,281.333 124.167,281.167 123.5,281C 125.061,280.059 126.395,278.892 127.5,277.5C 125.255,275.433 124.921,273.1 126.5,270.5 Z"/></g>
<g><path style="opacity:0.896" fill="#231f20" d="M 79.5,282.5 C 78.5,282.5 77.5,282.5 76.5,282.5C 77.6253,280.871 78.9586,279.371 80.5,278C 77.8808,275.743 77.8808,273.577 80.5,271.5C 82.024,272.527 82.6906,274.027 82.5,276C 82.6088,278.712 81.6088,280.878 79.5,282.5 Z"/></g>
<g><path style="opacity:0.922" fill="#221f20" d="M 98.5,271.5 C 102.127,274.174 102.46,277.341 99.5,281C 98.2068,281.49 96.8734,281.657 95.5,281.5C 95.698,277.908 96.698,274.574 98.5,271.5 Z"/></g>
<g><path style="opacity:0.875" fill="#221f20" d="M 86.5,282.5 C 85.8333,282.5 85.1667,282.5 84.5,282.5C 87.5444,279.421 89.8777,275.755 91.5,271.5C 91.7792,274.327 91.2792,277.327 90,280.5C 88.6976,281.085 87.531,281.751 86.5,282.5 Z"/></g>
</svg>
